<svg id="Layer_1" xmlns="http://www.w3.org/2000/svg" xmlns:xlink="http://www.w3.org/1999/xlink" viewBox="0 0 496 150"><style>.st2{fill:#5f6368}.st16{fill:#212121;fill-opacity:.02}</style><path fill="#fff" d="M1.5 1.5h493v147H1.5z"/><path d="M494 2v146H2V2h492m1-1H1v148h494V1z" fill="#dadce0"/><path class="st2" d="M173.13 106.16c-3.9 0-7.17-1.32-9.8-3.96-2.64-2.64-3.96-5.93-3.96-9.88 0-3.95 1.32-7.24 3.96-9.88 2.64-2.64 5.91-3.96 9.8-3.96 4 0 7.24 1.44 9.73 4.33l-2.37 2.29c-1.8-2.24-4.25-3.37-7.36-3.37-2.89 0-5.32.97-7.31 2.92-1.99 1.95-2.98 4.5-2.98 7.66s.99 5.71 2.98 7.66c1.98 1.95 4.42 2.92 7.31 2.92 3.18 0 5.9-1.28 8.14-3.85l2.37 2.37c-1.21 1.46-2.73 2.61-4.55 3.46-1.83.86-3.81 1.29-5.96 1.29zM190.08 79.08v8.36l-.15 2.52h.15c.49-.86 1.27-1.6 2.33-2.2 1.06-.6 2.19-.91 3.4-.91 2.24 0 3.96.69 5.14 2.07 1.18 1.38 1.78 3.23 1.78 5.55v11.1h-3.4V94.99c0-3.35-1.49-5.03-4.48-5.03-1.41 0-2.55.56-3.44 1.68-.89 1.12-1.33 2.42-1.33 3.9v10.03h-3.4V79.08h3.4zM210.13 105.57h-3.4V87.44h3.26v2.96h.15c.35-.99 1.05-1.8 2.13-2.44 1.07-.64 2.11-.96 3.13-.96 1.01 0 1.86.15 2.55.44l-1.3 3.18c-.44-.17-1.05-.26-1.81-.26-1.23 0-2.33.49-3.27 1.46-.95.97-1.42 2.25-1.42 3.83v9.92zM220.64 89.6c1.75-1.84 3.98-2.76 6.7-2.76s4.95.92 6.7 2.76c1.75 1.84 2.63 4.14 2.63 6.9 0 2.76-.88 5.06-2.63 6.9-1.75 1.84-3.98 2.76-6.7 2.76s-4.95-.92-6.7-2.76c-1.75-1.84-2.63-4.14-2.63-6.9 0-2.76.88-5.06 2.63-6.9zm2.53 11.66c1.17 1.2 2.56 1.79 4.16 1.79s2.99-.6 4.16-1.79c1.17-1.2 1.76-2.78 1.76-4.75 0-1.97-.59-3.56-1.76-4.75-1.17-1.2-2.56-1.79-4.16-1.79s-2.99.6-4.16 1.79-1.76 2.78-1.76 4.75c.01 1.97.59 3.55 1.76 4.75zM239.4 105.57V87.44h3.26v2.52h.15c.52-.86 1.31-1.6 2.39-2.2 1.07-.6 2.14-.91 3.2-.91 2.81 0 4.72 1.16 5.73 3.48 1.48-2.32 3.59-3.48 6.33-3.48 2.15 0 3.76.68 4.85 2.05 1.09 1.37 1.63 3.23 1.63 5.57v11.1h-3.4V94.99c0-1.83-.33-3.12-1-3.88s-1.68-1.15-3.03-1.15c-1.33 0-2.44.57-3.31 1.7-.88 1.13-1.31 2.43-1.31 3.88v10.03h-3.4V94.99c0-1.83-.33-3.12-1-3.88-.67-.76-1.68-1.15-3.03-1.15-1.33 0-2.44.57-3.31 1.7-.88 1.13-1.31 2.43-1.31 3.88v10.03h-3.44zM279.14 106.16c-2.74 0-4.96-.91-6.68-2.74-1.71-1.82-2.57-4.13-2.57-6.92 0-2.64.83-4.91 2.5-6.81s3.79-2.85 6.38-2.85c2.69 0 4.84.88 6.46 2.63s2.42 4.09 2.42 7.03l-.04.63h-14.32c.1 1.83.71 3.27 1.83 4.33s2.44 1.59 3.94 1.59c2.44 0 4.09-1.04 4.96-3.11l3.03 1.26c-.59 1.41-1.57 2.58-2.92 3.53-1.36.96-3.02 1.43-4.99 1.43zm4.88-11.84c-.07-1.04-.55-2.02-1.42-2.96-.88-.94-2.18-1.41-3.9-1.41-1.26 0-2.35.4-3.27 1.18s-1.56 1.85-1.91 3.18h10.5zM328.87 79.08l-7.07 26.49h-3.48l-5.7-17.46h-.15l-5.7 17.46h-3.48l-7.36-26.49h3.55l5.59 20.83h.15l5.74-17.28h3.18l5.74 17.28h.15l5.29-20.83h3.55zM337.71 106.16c-2.74 0-4.96-.91-6.68-2.74-1.71-1.82-2.57-4.13-2.57-6.92 0-2.64.83-4.91 2.5-6.81s3.79-2.85 6.38-2.85c2.69 0 4.84.88 6.46 2.63s2.42 4.09 2.42 7.03l-.04.63h-14.32c.1 1.83.71 3.27 1.83 4.33s2.44 1.59 3.94 1.59c2.44 0 4.09-1.04 4.96-3.11l3.03 1.26c-.59 1.41-1.57 2.58-2.92 3.53-1.35.96-3.02 1.43-4.99 1.43zm4.88-11.84c-.07-1.04-.55-2.02-1.42-2.96-.88-.94-2.18-1.41-3.9-1.41-1.26 0-2.35.4-3.27 1.18s-1.56 1.85-1.91 3.18h10.5zM358.91 106.16c-1.38 0-2.62-.3-3.72-.89s-1.92-1.33-2.46-2.22h-.15v2.52h-3.26V79.08h3.4v8.36l-.15 2.52h.15c.54-.89 1.36-1.63 2.46-2.22s2.34-.89 3.72-.89c2.34 0 4.37.92 6.07 2.77 1.7 1.85 2.55 4.14 2.55 6.88s-.85 5.03-2.55 6.88c-1.69 1.86-3.72 2.78-6.06 2.78zm-.56-3.11c1.58 0 2.94-.6 4.07-1.79s1.7-2.78 1.7-4.75c0-1.97-.57-3.56-1.7-4.75s-2.49-1.79-4.07-1.79c-1.6 0-2.97.59-4.09 1.78-1.12 1.18-1.68 2.77-1.68 4.77s.56 3.59 1.68 4.77c1.13 1.17 2.49 1.76 4.09 1.76zM385.73 106.16c-1.92 0-3.8-.63-5.64-1.89s-3.04-3.02-3.61-5.29l3.11-1.26c.37 1.46 1.13 2.68 2.28 3.68s2.44 1.5 3.87 1.5c1.48 0 2.74-.39 3.79-1.17 1.05-.78 1.57-1.83 1.57-3.16 0-1.48-.52-2.62-1.57-3.42-1.05-.8-2.71-1.55-4.98-2.24-2.34-.74-4.12-1.7-5.33-2.87-1.21-1.17-1.81-2.67-1.81-4.5 0-1.9.75-3.55 2.26-4.96 1.5-1.41 3.46-2.11 5.88-2.11 2.24 0 4.07.56 5.48 1.68 1.41 1.12 2.32 2.35 2.74 3.68l-3.11 1.29c-.22-.84-.77-1.62-1.65-2.33-.88-.71-2-1.07-3.38-1.07-1.31 0-2.42.36-3.35 1.09s-1.39 1.63-1.39 2.72c0 .99.43 1.82 1.28 2.5.85.68 2.1 1.29 3.76 1.83 1.31.42 2.4.83 3.27 1.22.88.39 1.76.92 2.66 1.57.9.65 1.58 1.47 2.04 2.44.46.97.68 2.1.68 3.38 0 1.28-.27 2.43-.8 3.44-.53 1.01-1.23 1.81-2.11 2.41-.88.59-1.82 1.04-2.83 1.35a9.68 9.68 0 0 1-3.11.49zM405.05 105.86c-1.9 0-3.35-.5-4.35-1.52s-1.5-2.44-1.5-4.29v-9.51h-3.18v-3.11h3.18v-5.55h3.4v5.55h4.44v3.11h-4.44v9.25c0 1.97.81 2.96 2.44 2.96.62 0 1.13-.1 1.55-.3l1.18 2.92c-.72.33-1.64.49-2.72.49zM411.71 89.6c1.75-1.84 3.98-2.76 6.7-2.76 2.71 0 4.95.92 6.7 2.76 1.75 1.84 2.63 4.14 2.63 6.9 0 2.76-.88 5.06-2.63 6.9-1.75 1.84-3.98 2.76-6.7 2.76-2.71 0-4.95-.92-6.7-2.76-1.75-1.84-2.63-4.14-2.63-6.9 0-2.76.88-5.06 2.63-6.9zm2.53 11.66c1.17 1.2 2.56 1.79 4.16 1.79s2.99-.6 4.16-1.79c1.17-1.2 1.76-2.78 1.76-4.75 0-1.97-.59-3.56-1.76-4.75-1.17-1.2-2.56-1.79-4.16-1.79s-2.99.6-4.16 1.79-1.76 2.78-1.76 4.75c.01 1.97.59 3.55 1.76 4.75zM433.87 105.57h-3.4V87.44h3.26v2.96h.15c.35-.99 1.05-1.8 2.13-2.44 1.07-.64 2.12-.96 3.13-.96 1.01 0 1.86.15 2.55.44l-1.29 3.18c-.44-.17-1.05-.26-1.81-.26-1.23 0-2.33.49-3.27 1.46-.95.97-1.42 2.25-1.42 3.83v9.92zM451 106.16c-2.74 0-4.96-.91-6.68-2.74-1.71-1.82-2.57-4.13-2.57-6.92 0-2.64.83-4.91 2.5-6.81s3.79-2.85 6.38-2.85c2.69 0 4.84.88 6.46 2.63s2.42 4.09 2.42 7.03l-.04.63h-14.32c.1 1.83.71 3.27 1.83 4.33s2.44 1.59 3.94 1.59c2.44 0 4.09-1.04 4.96-3.11l3.03 1.26c-.59 1.41-1.57 2.58-2.92 3.53-1.35.96-3.02 1.43-4.99 1.43zm4.88-11.84c-.07-1.04-.55-2.02-1.42-2.96-.88-.94-2.18-1.41-3.9-1.41-1.26 0-2.35.4-3.27 1.18s-1.56 1.85-1.91 3.18h10.5z"/><g><path class="st2" d="M161.34 64.44l7.56-20.05h2.91l7.56 20.05h-2.86l-1.93-5.43h-8.43l-1.96 5.43h-2.85zm5.68-7.84h6.66l-3.28-9.04h-.11l-3.27 9.04zM183.96 64.44l-5.54-13.72h2.8l4.03 10.64h.06l4.09-10.64h2.74l-5.6 13.72h-2.58zM197.88 64.89c-1.46 0-2.67-.42-3.65-1.26-.98-.84-1.47-1.95-1.47-3.33 0-1.49.58-2.67 1.74-3.51 1.16-.85 2.58-1.27 4.28-1.27 1.51 0 2.75.28 3.72.84v-.39c0-1.01-.35-1.81-1.04-2.42-.69-.61-1.54-.91-2.55-.91-.75 0-1.42.18-2.03.53-.61.36-1.02.84-1.25 1.46l-2.35-1.01c.32-.82.94-1.58 1.88-2.28.93-.7 2.17-1.05 3.7-1.05 1.75 0 3.21.51 4.37 1.54 1.16 1.03 1.74 2.47 1.74 4.34v8.29h-2.46v-1.9h-.11c-1.04 1.54-2.55 2.33-4.52 2.33zm.42-2.36c1.06 0 2.03-.4 2.9-1.19s1.3-1.73 1.3-2.81c-.73-.6-1.82-.9-3.28-.9-1.25 0-2.19.27-2.83.81-.63.54-.95 1.18-.95 1.9 0 .67.29 1.2.87 1.6.58.4 1.24.59 1.99.59zM210.67 47.27c-.35.35-.78.53-1.29.53s-.93-.18-1.29-.53c-.35-.35-.53-.78-.53-1.29s.18-.93.53-1.29c.35-.35.78-.53 1.29-.53s.93.18 1.29.53c.35.36.53.78.53 1.29s-.17.94-.53 1.29zm0 17.17h-2.58V50.72h2.58v13.72zM216.61 64.44h-2.58V44.39h2.58v20.05zM223.94 64.89c-1.46 0-2.67-.42-3.65-1.26-.98-.84-1.47-1.95-1.47-3.33 0-1.49.58-2.67 1.74-3.51 1.16-.85 2.58-1.27 4.28-1.27 1.51 0 2.75.28 3.72.84v-.39c0-1.01-.35-1.81-1.04-2.42-.69-.61-1.54-.91-2.55-.91-.75 0-1.42.18-2.03.53-.61.36-1.02.84-1.25 1.46l-2.35-1.01c.32-.82.94-1.58 1.88-2.28.93-.7 2.17-1.05 3.7-1.05 1.75 0 3.21.51 4.37 1.54 1.16 1.03 1.74 2.47 1.74 4.34v8.29h-2.46v-1.9h-.11c-1.04 1.54-2.54 2.33-4.52 2.33zm.42-2.36c1.06 0 2.03-.4 2.9-1.19s1.3-1.73 1.3-2.81c-.73-.6-1.82-.9-3.28-.9-1.25 0-2.19.27-2.83.81-.63.54-.95 1.18-.95 1.9 0 .67.29 1.2.87 1.6.58.4 1.25.59 1.99.59zM241.19 64.89c-1.05 0-1.98-.22-2.81-.67-.83-.45-1.45-1.01-1.86-1.68h-.11v1.9h-2.46V44.39h2.58v6.33l-.11 1.9h.11c.41-.67 1.03-1.23 1.86-1.68s1.77-.67 2.81-.67c1.77 0 3.3.7 4.59 2.1 1.29 1.4 1.93 3.14 1.93 5.21s-.64 3.81-1.93 5.21-2.83 2.1-4.6 2.1zm-.42-2.36c1.19 0 2.22-.45 3.08-1.36.86-.91 1.29-2.1 1.29-3.6 0-1.49-.43-2.69-1.29-3.6-.86-.91-1.89-1.36-3.08-1.36-1.21 0-2.24.45-3.09 1.34-.85.9-1.27 2.1-1.27 3.61 0 1.51.42 2.72 1.27 3.61.85.92 1.88 1.36 3.09 1.36zM252.5 64.44h-2.58V44.39h2.58v20.05zM261.72 64.89c-2.07 0-3.76-.69-5.05-2.07-1.3-1.38-1.95-3.13-1.95-5.24 0-2 .63-3.71 1.89-5.15s2.87-2.16 4.83-2.16c2.03 0 3.66.66 4.89 1.99s1.83 3.1 1.83 5.32l-.03.48h-10.84c.07 1.38.54 2.47 1.39 3.28.85.8 1.84 1.2 2.98 1.2 1.85 0 3.1-.78 3.75-2.35l2.3.95c-.45 1.06-1.19 1.96-2.21 2.67-1.03.72-2.29 1.08-3.78 1.08zm3.69-8.96c-.06-.78-.42-1.53-1.08-2.24-.66-.71-1.65-1.06-2.95-1.06-.95 0-1.78.3-2.48.9s-1.18 1.4-1.44 2.41h7.95zM279.47 47.27c-.35.35-.78.53-1.29.53s-.93-.18-1.29-.53-.53-.78-.53-1.29.18-.93.53-1.29c.35-.35.78-.53 1.29-.53s.93.18 1.29.53c.35.36.53.78.53 1.29s-.18.94-.53 1.29zm0 17.17h-2.58V50.72h2.58v13.72zM285.29 50.72v1.9h.11c.37-.65.96-1.21 1.76-1.67.8-.46 1.66-.69 2.58-.69 1.7 0 3 .52 3.89 1.57.9 1.04 1.34 2.45 1.34 4.2v8.4h-2.58v-8.01c0-2.54-1.13-3.81-3.39-3.81-1.06 0-1.93.42-2.6 1.27s-1.01 1.83-1.01 2.95v7.59h-2.58v-13.7h2.48zM310.1 64.66c-1.44 0-2.53-.38-3.29-1.15-.76-.77-1.13-1.85-1.13-3.25v-7.2h-2.41v-2.35h2.41v-4.2h2.58v4.2h3.36v2.35h-3.36v7c0 1.49.62 2.24 1.85 2.24.47 0 .86-.07 1.18-.22l.9 2.21c-.58.25-1.27.37-2.09.37zM316.79 44.39v6.33l-.11 1.9h.11c.37-.65.96-1.21 1.76-1.67.8-.46 1.66-.69 2.58-.69 1.7 0 3 .52 3.89 1.57.9 1.04 1.34 2.45 1.34 4.2v8.4h-2.58v-8.01c0-2.54-1.13-3.81-3.39-3.81-1.06 0-1.93.42-2.6 1.27s-1.01 1.83-1.01 2.95v7.59h-2.58V44.39h2.59zM335.6 64.89c-2.07 0-3.76-.69-5.05-2.07-1.3-1.38-1.95-3.13-1.95-5.24 0-2 .63-3.71 1.89-5.15s2.87-2.16 4.83-2.16c2.03 0 3.66.66 4.89 1.99s1.83 3.1 1.83 5.32l-.03.48h-10.84c.07 1.38.54 2.47 1.39 3.28.85.8 1.84 1.2 2.98 1.2 1.85 0 3.1-.78 3.75-2.35l2.3.95c-.45 1.06-1.19 1.96-2.21 2.67-1.02.72-2.28 1.08-3.78 1.08zm3.7-8.96c-.06-.78-.42-1.53-1.08-2.24-.66-.71-1.65-1.06-2.95-1.06-.95 0-1.78.3-2.48.9s-1.18 1.4-1.44 2.41h7.95z"/></g><g><defs><path id="SVGID_1_" d="M23.89 27.57v87.67c0 4.13 3.38 7.51 7.51 7.51h95.18c4.13 0 7.51-3.38 7.51-7.51V27.57H23.89zm67.63 20.04H66.48c-2.77 0-5.01-2.24-5.01-5.01 0-2.77 2.24-5.01 5.01-5.01h25.05c2.77 0 5.01 2.24 5.01 5.01a5.021 5.021 0 0 1-5.02 5.01z"/></defs><clipPath id="SVGID_2_"><use xlink:href="#SVGID_1_" overflow="visible"/></clipPath><path d="M23.89 27.57H134.1v95.18H23.89V27.57z" clip-path="url(#SVGID_2_)" fill="#eee"/><g><defs><path id="SVGID_3_" d="M23.89 27.57v87.67c0 4.13 3.38 7.51 7.51 7.51h95.18c4.13 0 7.51-3.38 7.51-7.51V27.57H23.89zm67.63 20.04H66.48c-2.77 0-5.01-2.24-5.01-5.01 0-2.77 2.24-5.01 5.01-5.01h25.05c2.77 0 5.01 2.24 5.01 5.01a5.021 5.021 0 0 1-5.02 5.01z"/></defs><clipPath id="SVGID_4_"><use xlink:href="#SVGID_3_" overflow="visible"/></clipPath><path d="M91.52 37.59H66.48c-2.77 0-5.01 2.24-5.01 5.01 0 2.77 2.24 5.01 5.01 5.01h25.05c2.77 0 5.01-2.24 5.01-5.01a5.021 5.021 0 0 0-5.02-5.01z" clip-path="url(#SVGID_4_)" fill="#fff"/></g><g><defs><path id="SVGID_5_" d="M23.89 27.57v87.67c0 4.13 3.38 7.51 7.51 7.51h95.18c4.13 0 7.51-3.38 7.51-7.51V27.57H23.89zm67.63 20.04H66.48c-2.77 0-5.01-2.24-5.01-5.01 0-2.77 2.24-5.01 5.01-5.01h25.05c2.77 0 5.01 2.24 5.01 5.01a5.021 5.021 0 0 1-5.02 5.01z"/></defs><clipPath id="SVGID_6_"><use xlink:href="#SVGID_5_" overflow="visible"/></clipPath><g clip-path="url(#SVGID_6_)"><defs><circle id="SVGID_7_" cx="79" cy="115.24" r="47.59"/></defs><defs><circle id="SVGID_8_" cx="79" cy="115.24" r="47.59"/></defs><defs><circle id="SVGID_9_" cx="79" cy="115.24" r="47.59"/></defs><defs><circle id="SVGID_10_" cx="79" cy="115.24" r="47.59"/></defs><clipPath id="SVGID_11_"><use xlink:href="#SVGID_7_" overflow="visible"/></clipPath><clipPath id="SVGID_12_" clip-path="url(#SVGID_11_)"><use xlink:href="#SVGID_8_" overflow="visible"/></clipPath><clipPath id="SVGID_13_" clip-path="url(#SVGID_12_)"><use xlink:href="#SVGID_9_" overflow="visible"/></clipPath><clipPath id="SVGID_14_" clip-path="url(#SVGID_13_)"><use xlink:href="#SVGID_10_" overflow="visible"/></clipPath><path d="M38.97 67.65v58.41h21.3L79 93.6h47.59V67.65H38.97zm0 0v58.41h21.3L79 93.6h47.59V67.65H38.97z" clip-path="url(#SVGID_14_)" fill="#db4437"/><path d="M31.41 162.83h45.3l21.03-21.03v-15.74l-37.47-.01-28.86-49.48v86.26zm0 0h45.3l21.03-21.03v-15.74l-37.47-.01-28.86-49.48v86.26z" clip-path="url(#SVGID_14_)" fill="#0f9d58"/><path d="M79 93.6l18.74 32.45-21.02 36.78h49.88V93.6H79zm0 0l18.74 32.45-21.02 36.78h49.88V93.6H79z" clip-path="url(#SVGID_14_)" fill="#ffcd40"/><g clip-path="url(#SVGID_14_)"><circle cx="79" cy="115.24" r="21.64" fill="#f1f1f1"/><circle cx="79" cy="115.24" r="17.31" fill="#4285f4"/></g><g><defs><path id="SVGID_15_" d="M23.89 27.57v87.67c0 4.13 3.38 7.51 7.51 7.51h95.18c4.13 0 7.51-3.38 7.51-7.51V27.57H23.89zm67.63 20.04H66.48c-2.77 0-5.01-2.24-5.01-5.01 0-2.77 2.24-5.01 5.01-5.01h25.05c2.77 0 5.01 2.24 5.01 5.01a5.021 5.021 0 0 1-5.02 5.01z"/></defs><clipPath id="SVGID_16_"><use xlink:href="#SVGID_15_" overflow="visible"/></clipPath><path d="M23.89 27.57H134.1v47.59H23.89V27.57z" clip-path="url(#SVGID_16_)" fill="#212121" fill-opacity=".05"/></g><path class="st16" d="M23.89 74.54H134.1v.63H23.89v-.63z"/><path d="M23.89 75.16H134.1v.63H23.89v-.63z" fill="#fff" fill-opacity=".05"/><path class="st16" d="M91.52 47.61H66.48c-2.66 0-4.83-2.08-4.99-4.7-.01.11-.02.21-.02.31 0 2.77 2.24 5.01 5.01 5.01h25.05c2.77 0 5.01-2.24 5.01-5.01 0-.11-.01-.21-.02-.31a5.007 5.007 0 0 1-5 4.7zM23.89 27.57v.63H134.1v-.63H23.89z"/><path d="M66.48 37.59h25.05c2.66 0 4.83 2.08 4.99 4.7.01-.11.02-.21.02-.31 0-2.77-2.24-5.01-5.01-5.01H66.48c-2.77 0-5.01 2.24-5.01 5.01 0 .11.01.21.02.31a4.99 4.99 0 0 1 4.99-4.7zm60.11 84.54H31.41c-4.13 0-7.51-3.38-7.51-7.51v.63c0 4.13 3.38 7.51 7.51 7.51h95.18c4.13 0 7.51-3.38 7.51-7.51v-.63c.01 4.13-3.38 7.51-7.51 7.51z" fill="#231f20" fill-opacity=".1"/><radialGradient id="SVGID_17_" cx="91.332" cy="46.354" r="570.079" gradientTransform="matrix(.25 0 0 -.25 .75 38.75)" gradientUnits="userSpaceOnUse"><stop offset="0" stop-color="#fff" stop-opacity=".1"/><stop offset="1" stop-color="#fff" stop-opacity="0"/></radialGradient><path d="M23.89 27.57v87.67c0 4.13 3.38 7.51 7.51 7.51h95.18c4.13 0 7.51-3.38 7.51-7.51V27.57H23.89zm67.63 20.04H66.48c-2.77 0-5.01-2.24-5.01-5.01 0-2.77 2.24-5.01 5.01-5.01h25.05c2.77 0 5.01 2.24 5.01 5.01a5.021 5.021 0 0 1-5.02 5.01z" fill="url(#SVGID_17_)"/><path d="M18.89 15.05h120.23v120.23H18.89V15.05z" fill="none"/></g></g></g></svg>