<svg xmlns="http://www.w3.org/2000/svg" viewBox="0 0 631.85 74.2"><path fill="#fff" d="M66.14 6.42c.4 1.16.63 2.4.63 3.69 0 6.26-5.1 11.36-11.36 11.36-6.21 0-11.27-5.01-11.36-11.2l-5.9-2.11v5.52c0 2.2-1.79 3.98-3.98 3.98s-3.98-1.79-3.98-3.98V5.86h-3.6v7.91c0 2.25-1.83 4.09-4.09 4.09-2.25 0-4.09-1.83-4.09-4.09V5.86h-3.6v7.91c0 2.25-1.83 4.09-4.09 4.09s-4.09-1.83-4.09-4.09V6.99C2.73 8.85 0 12.84 0 17.45v45.16C0 68.98 5.22 74.2 11.59 74.2H62.6c6.38 0 11.59-5.22 11.59-11.59V17.45c.01-5.14-3.39-9.53-8.05-11.03zM14.98 37.33c0-3.95 3.21-7.16 7.17-7.16a7.16 7.16 0 0 1 7.16 7.16c0 3.96-3.21 7.17-7.16 7.17-3.97-.01-7.17-3.22-7.17-7.17zm38.5 19.38c-.21.22-5.36 5.45-16.98 5.45-11.68 0-16.35-5.3-16.54-5.53-.66-.77-.57-1.93.2-2.58a1.83 1.83 0 0 1 2.57.19c.1.11 4 4.26 13.77 4.26 9.94 0 14.3-4.29 14.34-4.33.7-.72 1.86-.73 2.59-.03.72.7.75 1.84.05 2.57zm-1.42-12.22a7.17 7.17 0 0 1-7.17-7.17c0-3.95 3.21-7.16 7.17-7.16a7.16 7.16 0 0 1 7.16 7.16c0 3.96-3.2 7.17-7.16 7.17z"/><path fill="#fff" d="M55.41.37c-3.37 0-6.35 1.73-8.1 4.34L34.96.29c-.72-.26-1.53-.15-2.15.29-.63.44-1 1.16-1 1.93v11.18c0 1.3 1.06 2.36 2.36 2.36 1.3 0 2.36-1.06 2.36-2.36V5.86l9.19 3.29c-.03.32-.05.64-.05.96 0 5.37 4.37 9.74 9.74 9.74s9.74-4.37 9.74-9.74S60.78.37 55.41.37zm0 14.76c-2.77 0-5.02-2.25-5.02-5.02s2.25-5.02 5.02-5.02c2.77 0 5.02 2.25 5.02 5.02s-2.25 5.02-5.02 5.02zm-32.91 1.1c-1.36 0-2.46-1.1-2.46-2.46V2.46C20.04 1.1 21.14 0 22.5 0s2.46 1.1 2.46 2.46v11.3c0 1.37-1.1 2.47-2.46 2.47zm-11.77 0c-1.36 0-2.46-1.1-2.46-2.46V2.46C8.27 1.1 9.37 0 10.73 0s2.46 1.1 2.46 2.46v11.3c.01 1.37-1.1 2.47-2.46 2.47zM135.28 61.3h-10.2l-7.32-13.5c-.6-1.04-1.32-1.79-2.16-2.25-.84-.46-1.9-.69-3.18-.69h-4.62V61.3h-9.24V19H118c4.96 0 8.71 1.09 11.25 3.27 2.54 2.18 3.81 5.33 3.81 9.45 0 3.2-.89 5.88-2.67 8.04-1.78 2.16-4.29 3.58-7.53 4.26 2.2.56 4.06 2.14 5.58 4.74l6.84 12.54zm-12.84-24.93c1.2-.94 1.8-2.41 1.8-4.41 0-2.04-.6-3.52-1.8-4.44-1.2-.92-3.14-1.38-5.82-1.38h-8.94v11.64h8.94c2.68 0 4.62-.47 5.82-1.41zm41.86 11.91h-19.2c.28 2.36 1.05 4.07 2.31 5.13 1.26 1.06 3.05 1.59 5.37 1.59 1.52 0 3.03-.25 4.53-.75 1.5-.5 2.87-1.21 4.11-2.13l2.4 6.06c-1.44 1.12-3.19 2-5.25 2.64-2.06.64-4.13.96-6.21.96-4.96 0-8.87-1.37-11.73-4.11-2.86-2.74-4.29-6.47-4.29-11.19 0-3 .62-5.66 1.86-7.98 1.24-2.32 2.96-4.13 5.16-5.43 2.2-1.3 4.7-1.95 7.5-1.95 4.12 0 7.39 1.34 9.81 4.02 2.42 2.68 3.63 6.32 3.63 10.92v2.22zm-17.31-9.27c-1.02 1.1-1.65 2.69-1.89 4.77h11.58c-.12-2.12-.65-3.72-1.59-4.8-.94-1.08-2.27-1.62-3.99-1.62-1.72 0-3.09.55-4.11 1.65zM198.27 19v42.3h-9v-4.38c-.88 1.52-2.13 2.71-3.75 3.57-1.62.86-3.45 1.29-5.49 1.29-2.52 0-4.77-.65-6.75-1.95-1.98-1.3-3.52-3.12-4.62-5.46s-1.65-5.03-1.65-8.07.55-5.71 1.65-8.01c1.1-2.3 2.63-4.07 4.59-5.31 1.96-1.24 4.22-1.86 6.78-1.86 2 0 3.81.42 5.43 1.26 1.62.84 2.87 2.02 3.75 3.54V19h9.06zm-10.71 33.69c1.14-1.46 1.71-3.55 1.71-6.27 0-2.72-.57-4.8-1.71-6.24-1.14-1.44-2.77-2.16-4.89-2.16-2.12 0-3.76.71-4.92 2.13-1.16 1.42-1.74 3.47-1.74 6.15 0 2.72.58 4.83 1.74 6.33 1.16 1.5 2.8 2.25 4.92 2.25s3.75-.73 4.89-2.19zM233.62 19v42.3h-9v-4.38c-.88 1.52-2.13 2.71-3.75 3.57-1.62.86-3.45 1.29-5.49 1.29-2.52 0-4.77-.65-6.75-1.95-1.98-1.3-3.52-3.12-4.62-5.46s-1.65-5.03-1.65-8.07.55-5.71 1.65-8.01c1.1-2.3 2.63-4.07 4.59-5.31 1.96-1.24 4.22-1.86 6.78-1.86 2 0 3.81.42 5.43 1.26 1.62.84 2.87 2.02 3.75 3.54V19h9.06zm-10.71 33.69c1.14-1.46 1.71-3.55 1.71-6.27 0-2.72-.57-4.8-1.71-6.24-1.14-1.44-2.77-2.16-4.89-2.16-2.12 0-3.76.71-4.92 2.13-1.16 1.42-1.74 3.47-1.74 6.15 0 2.72.58 4.83 1.74 6.33 1.16 1.5 2.8 2.25 4.92 2.25s3.75-.73 4.89-2.19zm25.63-35.01v8.46h-9.72v-8.46h9.72zm-9.42 14.16h9.06V61.3h-9.06V31.84zm33.93 23.1-.48 6.6c-1.16.16-2.32.24-3.48.24-4.48 0-7.75-.98-9.81-2.94-2.06-1.96-3.09-4.94-3.09-8.94V38.62h-5.58v-6.78h5.58V23.2h9.06v8.64h7.38v6.78h-7.38v11.22c0 3.52 1.64 5.28 4.92 5.28.93 0 1.88-.06 2.88-.18zM293.21 19h19.44c4.6 0 8.18 1.16 10.74 3.48 2.56 2.32 3.84 5.56 3.84 9.72 0 4.16-1.28 7.4-3.84 9.72-2.56 2.32-6.14 3.48-10.74 3.48h-10.08v15.9h-9.36V19zm18.24 19.32c4.68 0 7.02-2.02 7.02-6.06 0-2.08-.58-3.62-1.74-4.62-1.16-1-2.92-1.5-5.28-1.5h-8.88v12.18h8.88zm47.85-6.48V61.3h-8.82v-4.2c-.92 1.52-2.13 2.68-3.63 3.48-1.5.8-3.19 1.2-5.07 1.2-3.72 0-6.49-1.03-8.31-3.09-1.82-2.06-2.73-5.17-2.73-9.33V31.84h9.06v17.7c0 1.76.37 3.06 1.11 3.9.74.84 1.87 1.26 3.39 1.26 1.76 0 3.19-.6 4.29-1.8 1.1-1.2 1.65-2.78 1.65-4.74V31.84h9.06zm30.51 1.14c1.96 1.24 3.49 3.01 4.59 5.31 1.1 2.3 1.65 4.97 1.65 8.01s-.55 5.73-1.65 8.07c-1.1 2.34-2.64 4.16-4.62 5.46-1.98 1.3-4.23 1.95-6.75 1.95-2.04 0-3.88-.43-5.52-1.29-1.64-.86-2.9-2.05-3.78-3.57v4.38h-8.94V19h9.06v16.8c.88-1.48 2.13-2.63 3.75-3.45 1.62-.82 3.43-1.23 5.43-1.23 2.56 0 4.82.62 6.78 1.86zm-4.5 19.65c1.16-1.5 1.74-3.61 1.74-6.33 0-2.68-.58-4.73-1.74-6.15-1.16-1.42-2.8-2.13-4.92-2.13s-3.76.73-4.92 2.19c-1.16 1.46-1.74 3.53-1.74 6.21 0 2.72.58 4.81 1.74 6.27 1.16 1.46 2.8 2.19 4.92 2.19s3.76-.75 4.92-2.25zM400.15 19h9.06v42.3h-9.06V19zm23.98-1.32v8.46h-9.72v-8.46h9.72zm-9.42 14.16h9.06V61.3h-9.06V31.84zm18.51 29.01c-2.26-.62-4.21-1.51-5.85-2.67l2.4-6.24c1.6 1.08 3.36 1.92 5.28 2.52 1.92.6 3.86.9 5.82.9 1.4 0 2.49-.23 3.27-.69.78-.46 1.17-1.09 1.17-1.89 0-.72-.27-1.28-.81-1.68-.54-.4-1.55-.76-3.03-1.08l-4.8-1.08c-2.84-.64-4.93-1.63-6.27-2.97-1.34-1.34-2.01-3.17-2.01-5.49 0-1.84.53-3.46 1.59-4.86 1.06-1.4 2.56-2.5 4.5-3.3 1.94-.8 4.15-1.2 6.63-1.2 2.12 0 4.18.32 6.18.96 2 .64 3.8 1.54 5.4 2.7l-2.4 6c-3.12-2.16-6.2-3.24-9.24-3.24-1.4 0-2.5.24-3.3.72-.8.48-1.2 1.16-1.2 2.04 0 .64.24 1.14.72 1.5.48.36 1.32.7 2.52 1.02l4.98 1.14c3 .68 5.19 1.71 6.57 3.09s2.07 3.25 2.07 5.61c0 2.84-1.13 5.07-3.39 6.69-2.26 1.62-5.37 2.43-9.33 2.43-2.72 0-5.21-.31-7.47-.93zm50.4-26.64c1.72 2.06 2.58 5.17 2.58 9.33V61.3h-9.06V43.96c0-2-.37-3.46-1.11-4.38-.74-.92-1.89-1.38-3.45-1.38-1.88 0-3.39.6-4.53 1.8-1.14 1.2-1.71 2.8-1.71 4.8v16.5h-9.06V19h9.06v16.74c1.04-1.52 2.37-2.67 3.99-3.45 1.62-.78 3.43-1.17 5.43-1.17 3.51 0 6.13 1.03 7.86 3.09zM509.11 19h16.44c4.6 0 8.56.84 11.88 2.52 3.32 1.68 5.86 4.1 7.62 7.26 1.76 3.16 2.64 6.94 2.64 11.34 0 4.4-.87 8.19-2.61 11.37s-4.27 5.61-7.59 7.29c-3.32 1.68-7.3 2.52-11.94 2.52h-16.44V19zm15.78 34.74c9 0 13.5-4.54 13.5-13.62 0-9.04-4.5-13.56-13.5-13.56h-6.42v27.18h6.42zm50.2-19.5c2.1 2.08 3.15 5.3 3.15 9.66v17.4h-8.58v-4.38c-.6 1.52-1.6 2.71-3 3.57-1.4.86-3.04 1.29-4.92 1.29-2 0-3.81-.4-5.43-1.2-1.62-.8-2.9-1.92-3.84-3.36s-1.41-3.04-1.41-4.8c0-2.16.55-3.86 1.65-5.1 1.1-1.24 2.87-2.14 5.31-2.7 2.44-.56 5.78-.84 10.02-.84h1.56V42.7c0-1.76-.38-3-1.14-3.72-.76-.72-2.08-1.08-3.96-1.08-1.44 0-3.04.26-4.8.78-1.76.52-3.44 1.24-5.04 2.16l-2.4-6.06c1.68-1.04 3.75-1.91 6.21-2.61s4.75-1.05 6.87-1.05c4.4 0 7.65 1.04 9.75 3.12zm-7.11 19.53c1.08-1.18 1.62-2.71 1.62-4.59v-1.02h-1.02c-3.24 0-5.51.26-6.81.78-1.3.52-1.95 1.46-1.95 2.82 0 1.08.37 1.98 1.11 2.7.74.72 1.67 1.08 2.79 1.08 1.76 0 3.18-.59 4.26-1.77zm34.85 1.17-.48 6.6c-1.16.16-2.32.24-3.48.24-4.48 0-7.75-.98-9.81-2.94-2.06-1.96-3.09-4.94-3.09-8.94V38.62h-5.58v-6.78h5.58V23.2h9.06v8.64h7.38v6.78h-7.38v11.22c0 3.52 1.64 5.28 4.92 5.28.92 0 1.88-.06 2.88-.18zm29.02-6.66h-19.2c.28 2.36 1.05 4.07 2.31 5.13 1.26 1.06 3.05 1.59 5.37 1.59 1.52 0 3.03-.25 4.53-.75 1.5-.5 2.87-1.21 4.11-2.13l2.4 6.06c-1.44 1.12-3.19 2-5.25 2.64s-4.13.96-6.21.96c-4.96 0-8.87-1.37-11.73-4.11-2.86-2.74-4.29-6.47-4.29-11.19 0-3 .62-5.66 1.86-7.98 1.24-2.32 2.96-4.13 5.16-5.43 2.2-1.3 4.7-1.95 7.5-1.95 4.12 0 7.39 1.34 9.81 4.02 2.42 2.68 3.63 6.32 3.63 10.92v2.22zm-17.31-9.27c-1.02 1.1-1.65 2.69-1.89 4.77h11.58c-.12-2.12-.65-3.72-1.59-4.8-.94-1.08-2.27-1.62-3.99-1.62s-3.09.55-4.11 1.65z"/></svg>